<svg xmlns="http://www.w3.org/2000/svg" xmlns:xlink="http://www.w3.org/1999/xlink" width="202" height="63" fill="none" xmlns:v="https://vecta.io/nano"><style><![CDATA[.B{fill-opacity:.5}.C{fill-opacity:.8}.D{color-interpolation-filters:sRGB}.E{flood-opacity:0}.F{stroke-width:1.265}]]></style><mask id="A" maskUnits="userSpaceOnUse" x="0" y="0" width="53" height="62" mask-type="alpha"><path fill="url(#J)" d="M0 .484h53v61H0z"/></mask><g mask="url(#A)"><g opacity=".5" filter="url(#D)"><path d="M8.795 14.385L6 36.212l22.4-8 22.4 8-3.427-21.827H8.795z" fill="url(#K)"/></g><g filter="url(#E)"><path d="M10.524 25.465c-.83.326-1.727-.286-1.727-1.177V9.633L27.88 1.723l19.665 7.909v14.674c0 .886-.887 1.497-1.715 1.182l-16.579-6.316c-.883-.336-1.859-.331-2.738.014l-15.989 6.278z" fill="#91fbe2"/></g><path d="M10.524 23.448c-.83.326-1.727-.286-1.727-1.177V9.726c0-.511.308-.973.781-1.168l16.871-6.993c.918-.38 1.947-.386 2.869-.015l17.435 7.012c.479.193.793.657.793 1.174v12.555c0 .886-.887 1.497-1.715 1.182l-16.579-6.316c-.883-.336-1.859-.331-2.738.014l-15.989 6.278z" fill="url(#L)"/><g opacity=".3"><mask id="B" maskUnits="userSpaceOnUse" x="8" y="1" width="40" height="23" mask-type="alpha"><path d="M10.524 23.445c-.83.326-1.727-.286-1.727-1.177V9.723c0-.511.308-.973.781-1.168l16.871-6.993c.918-.38 1.947-.386 2.869-.015l17.435 7.012c.479.193.793.657.793 1.174v12.555c0 .886-.887 1.497-1.715 1.182l-16.579-6.316c-.883-.336-1.859-.331-2.738.014l-15.989 6.278z" fill="url(#M)"/></mask><g mask="url(#B)"><use xlink:href="#b" fill="url(#N)"/><use xlink:href="#b" x="5.059" fill="url(#O)"/><use xlink:href="#b" x="10.119" fill="url(#P)"/><use xlink:href="#b" x="15.178" fill="url(#O)"/><use xlink:href="#b" x="20.238" fill="url(#P)"/><use xlink:href="#b" x="25.297" fill="url(#O)"/><use xlink:href="#b" x="30.357" fill="url(#P)"/></g></g><path d="M9.81958 9.13878L26.6903 2.14625C27.4549 1.82937 28.3132 1.82485 29.0811 2.13367L46.516 9.14592C46.7555 9.24226 46.9124 9.47451 46.9124 9.73268L46.9124 35.5068C46.9124 35.8561 46.6293 36.1392 46.28 36.1392L10.0617 36.1392C9.71246 36.1392 9.42931 35.8561 9.42931 35.5068L9.4293 9.72302C9.4293 9.46728 9.58333 9.2367 9.81958 9.13878Z" stroke="url(#Q)" class="F"/><g opacity=".5" filter="url(#F)"><path d="M8.795 36.385L6 58.212l22.4-8 22.4 8-3.427-21.827H8.795z" fill="url(#R)"/></g><g filter="url(#G)"><path d="M10.524 49.497c-.83.326-1.727-.286-1.727-1.177V33.665l19.083-7.909 19.665 7.909V48.34c0 .886-.887 1.497-1.715 1.182l-16.579-6.316c-.883-.336-1.859-.331-2.738.014l-15.989 6.278z" fill="#91fbe2"/></g><path d="M10.524 47.481c-.83.326-1.727-.286-1.727-1.177V33.759c0-.511.308-.973.781-1.169l16.871-6.992c.918-.38 1.947-.386 2.869-.015l17.435 7.012c.479.193.793.657.793 1.173v12.555c0 .886-.887 1.497-1.715 1.182l-16.579-6.316c-.883-.336-1.859-.331-2.738.014l-15.989 6.278z" fill="url(#S)"/><g opacity=".3"><mask id="C" maskUnits="userSpaceOnUse" x="8" y="25" width="40" height="23" mask-type="alpha"><path d="M10.524 47.477c-.83.326-1.727-.286-1.727-1.177V33.755c0-.511.308-.973.781-1.169l16.871-6.992c.918-.38 1.947-.386 2.869-.015l17.435 7.012c.479.193.793.657.793 1.173V46.32c0 .886-.887 1.497-1.715 1.182l-16.579-6.316c-.883-.336-1.859-.331-2.738.014l-15.989 6.278z" fill="url(#T)"/></mask><g mask="url(#C)"><use xlink:href="#b" y="24.032" fill="url(#U)"/><use xlink:href="#b" x="5.059" y="24.032" fill="url(#V)"/><use xlink:href="#b" x="10.119" y="24.032" fill="url(#U)"/><use xlink:href="#b" x="15.178" y="24.032" fill="url(#V)"/><use xlink:href="#b" x="20.238" y="24.032" fill="url(#U)"/><use xlink:href="#b" x="25.297" y="24.032" fill="url(#V)"/><use xlink:href="#b" x="30.357" y="24.032" fill="url(#U)"/></g></g><path d="M9.81958 33.171L26.6903 26.1785C27.4549 25.8616 28.3132 25.8571 29.0811 26.1659L46.516 33.1781C46.7555 33.2745 46.9124 33.5067 46.9124 33.7649L46.9124 59.539C46.9124 59.8883 46.6293 60.1714 46.28 60.1714L10.0617 60.1714C9.71246 60.1714 9.42931 59.8883 9.42931 59.539L9.4293 33.7552C9.4293 33.4995 9.58333 33.2689 9.81958 33.171Z" stroke="url(#W)" class="F"/></g><path d="M63.562 7.283c3.086 0 5.234.551 6.444 1.652 1.21 1.086 1.815 2.621 1.815 4.606 0 1.365-.24 2.528-.721 3.49-.481.946-1.326 1.691-2.536 2.233-1.21.527-2.877.791-5.002.791h-4.839v4.094H53l.186-8.445L53 7.26h5.723v.023h4.839zm-1.628 8.282l2.885-.139c.651-.109 1.101-.295 1.349-.558.264-.264.395-.651.395-1.163s-.124-.892-.372-1.14c-.233-.264-.675-.442-1.326-.535-.636-.093-1.613-.14-2.931-.14h-3.21v3.676h3.21z" fill="url(#X)"/><path d="M84.026 24.382c-3.552 0-6.165-.768-7.84-2.303-1.675-1.551-2.512-3.722-2.512-6.514 0-2.761.83-4.916 2.489-6.467 1.675-1.551 4.296-2.326 7.863-2.326 3.583 0 6.204.775 7.863 2.326 1.675 1.551 2.513 3.707 2.513 6.467 0 2.807-.83 4.978-2.489 6.514s-4.288 2.303-7.886 2.303zm0-4.746c1.722 0 2.962-.326 3.722-.977.76-.667 1.14-1.698 1.14-3.094 0-1.365-.38-2.381-1.14-3.047s-2.001-1-3.722-1c-1.706 0-2.939.334-3.699 1s-1.14 1.683-1.14 3.047c0 1.38.38 2.404 1.14 3.071s1.993 1 3.699 1z" fill="url(#X)"/><path d="M111.848 17.798l1.209-10.539h5.677l-3.118 16.89h-7.142l-1.582-9.422-1.837 9.422h-6.84L95.098 7.26h5.676l1.187 10.399 1.861-10.399h6.211l1.815 10.539z" fill="url(#X)"/><path d="M126.078 19.892c5.894-.031 10.167-.116 12.819-.256-.109.636-.179 1.295-.21 1.977l-.023 2.536h-18.076c.124-3.009.186-5.824.186-8.445a205.81 205.81 0 0 0-.186-8.445h18.076v4.211h-12.586v2.233l3.304.023c2.466 0 5.017-.046 7.654-.14v4.001c-2.637-.093-5.188-.14-7.654-.14l-3.304.023v2.419z" fill="url(#X)"/><path d="M159.443 12.889c0 1.349-.333 2.489-1 3.42-.652.931-1.776 1.605-3.374 2.024l.396.582 3.769 5.234h-6.328l-3.234-5.397h-3.42v5.397h-5.49l.186-8.445-.186-8.445h5.49v.023h4.77c3.132 0 5.319.504 6.56 1.512s1.861 2.373 1.861 4.094zm-13.191-1.14v2.652h3.141l2.978-.116c.682-.093 1.155-.233 1.419-.419s.395-.457.395-.814c0-.341-.124-.605-.372-.791s-.713-.318-1.396-.396-1.69-.116-3.024-.116h-3.141z" fill="url(#X)"/><path d="M66.773 30.927h5.769v9.259c-.031 2.28-.814 4.164-2.35 5.653-1.52 1.489-4.087 2.233-7.7 2.233-3.66 0-6.165-.706-7.514-2.117-1.349-1.427-2.008-3.296-1.977-5.607v-9.422h5.77v9.05c0 .682.047 1.241.14 1.675.108.419.434.814.977 1.187.558.372 1.45.558 2.675.558 1.334 0 2.311-.186 2.931-.558.62-.388.985-.814 1.093-1.279.124-.465.186-1.062.186-1.791v-8.84z" fill="url(#Y)"/><path d="M84.964 30.974c3.086 0 5.234.551 6.444 1.652 1.21 1.086 1.815 2.621 1.815 4.606 0 1.365-.24 2.528-.721 3.489-.481.946-1.326 1.691-2.536 2.233-1.21.527-2.877.791-5.002.791h-4.839v4.094h-5.723l.186-8.445-.186-8.445h5.723v.023h4.839zm-1.628 8.282l2.885-.14c.651-.109 1.101-.295 1.349-.558.264-.264.395-.651.395-1.163s-.124-.892-.372-1.14c-.233-.264-.675-.442-1.326-.535-.636-.093-1.613-.14-2.931-.14h-3.211v3.676h3.211z" fill="url(#Y)"/><g filter="url(#H)" class="B"><use xlink:href="#c" fill="url(#Z)"/><use xlink:href="#d" fill="url(#Z)"/><use xlink:href="#e" fill="url(#Z)"/><use xlink:href="#f" fill="url(#Z)"/><use xlink:href="#g" fill="url(#Z)"/><use xlink:href="#h" fill="url(#Z)"/></g><use xlink:href="#c" fill="url(#a)"/><use xlink:href="#d" fill="url(#a)"/><use xlink:href="#e" fill="url(#a)"/><use xlink:href="#f" fill="url(#a)"/><use xlink:href="#g" fill="url(#a)"/><use xlink:href="#h" fill="url(#a)"/><g filter="url(#I)" class="C"><use xlink:href="#c" fill="url(#a)"/><use xlink:href="#d" fill="url(#a)"/><use xlink:href="#e" fill="url(#a)"/><use xlink:href="#f" fill="url(#a)"/><use xlink:href="#g" fill="url(#a)"/><use xlink:href="#h" fill="url(#a)"/></g><defs><filter id="D" x=".941" y="9.325" width="54.919" height="31.946" filterUnits="userSpaceOnUse" class="D"><feFlood class="E"/><feBlend in="SourceGraphic"/><feGaussianBlur stdDeviation="2.53"/></filter><filter id="E" x="7.532" y=".459" width="41.278" height="26.379" filterUnits="userSpaceOnUse" class="D"><feFlood class="E"/><feBlend in="SourceGraphic"/><feGaussianBlur stdDeviation=".632"/></filter><filter id="F" x=".941" y="31.325" width="54.919" height="31.946" filterUnits="userSpaceOnUse" class="D"><feFlood class="E"/><feBlend in="SourceGraphic"/><feGaussianBlur stdDeviation="2.53"/></filter><filter id="G" x="7.532" y="24.491" width="41.278" height="26.379" filterUnits="userSpaceOnUse" class="D"><feFlood class="E"/><feBlend in="SourceGraphic"/><feGaussianBlur stdDeviation=".632"/></filter><filter id="H" x="82.522" y="16.928" width="119.278" height="45.898" filterUnits="userSpaceOnUse" class="D"><feFlood class="E"/><feBlend in="SourceGraphic"/><feGaussianBlur stdDeviation="7.2"/></filter><filter id="I" x="94.922" y="29.328" width="94.479" height="21.098" filterUnits="userSpaceOnUse" class="D"><feFlood class="E"/><feBlend in="SourceGraphic"/><feGaussianBlur stdDeviation="1"/></filter><linearGradient id="J" x1="53" y1="26.083" x2="0" y2="26.083" xlink:href="#i"><stop stop-color="#021920" stop-opacity=".1"/><stop offset=".462" stop-color="#021920"/></linearGradient><linearGradient id="K" x1="27.911" y1="17.993" x2="28.372" y2="42.005" xlink:href="#i"><stop stop-color="#00ffc3"/><stop offset=".81" stop-color="#91fbe2" stop-opacity="0"/></linearGradient><linearGradient id="L" x1="28.413" y1="1.004" x2="28.413" y2="16.759" xlink:href="#i"><stop stop-color="#8df8df"/><stop offset=".297" stop-color="#2bd0a9"/><stop offset="1" stop-color="#008880"/></linearGradient><linearGradient id="M" x1="28.413" y1="1" x2="28.413" y2="16.756" xlink:href="#i"><stop stop-color="#8df8df"/><stop offset=".297" stop-color="#2bd0a9"/><stop offset="1" stop-color="#008880"/></linearGradient><linearGradient id="N" x1="13.226" y1=".969" x2="13.226" y2="22.471" xlink:href="#i"><stop stop-color="#8afae2"/><stop offset="1" stop-color="#8efbe2" stop-opacity="0"/></linearGradient><linearGradient id="O" x1="13.227" y1="0.969" x2="13.227" y2="22.471" xlink:href="#i"><stop stop-color="#8afae2"/><stop offset="1" stop-color="#8efbe2" stop-opacity="0"/></linearGradient><linearGradient id="P" x1="13.226" y1="0.969" x2="13.226" y2="22.471" xlink:href="#i"><stop stop-color="#8afae2"/><stop offset="1" stop-color="#8efbe2" stop-opacity="0"/></linearGradient><linearGradient id="Q" x1="27.77" y1="23.736" x2="28.009" y2=".971" xlink:href="#i"><stop stop-color="#2bfaed" stop-opacity="0"/><stop offset=".689" stop-color="#37dbc4"/><stop offset="1" stop-color="#91fbe2"/></linearGradient><linearGradient id="R" x1="27.911" y1="39.993" x2="28.372" y2="64.004" xlink:href="#i"><stop stop-color="#00ffc3"/><stop offset=".81" stop-color="#91fbe2" stop-opacity="0"/></linearGradient><linearGradient id="S" x1="28.413" y1="25.036" x2="28.413" y2="40.792" xlink:href="#i"><stop stop-color="#8df8df"/><stop offset=".297" stop-color="#2bd0a9"/><stop offset="1" stop-color="#008880"/></linearGradient><linearGradient id="T" x1="28.413" y1="25.033" x2="28.413" y2="40.788" xlink:href="#i"><stop stop-color="#8df8df"/><stop offset=".297" stop-color="#2bd0a9"/><stop offset="1" stop-color="#008880"/></linearGradient><linearGradient id="U" x1="13.226" y1="0.969" x2="13.226" y2="22.472" xlink:href="#i"><stop stop-color="#8afae2"/><stop offset="1" stop-color="#8efbe2" stop-opacity="0"/></linearGradient><linearGradient id="V" x1="13.227" y1="0.969" x2="13.227" y2="22.472" xlink:href="#i"><stop stop-color="#8afae2"/><stop offset="1" stop-color="#8efbe2" stop-opacity="0"/></linearGradient><linearGradient id="W" x1="27.77" y1="47.769" x2="28.009" y2="25.004" xlink:href="#i"><stop stop-color="#2bfaed" stop-opacity="0"/><stop offset=".689" stop-color="#37dbc4"/><stop offset="1" stop-color="#91fbe2"/></linearGradient><linearGradient id="X" x1="106.222" y1="6.771" x2="106.222" y2="24.382" xlink:href="#i"><stop stop-color="#c9fff3"/><stop offset="1" stop-color="#fff"/></linearGradient><linearGradient id="Y" x1="73.111" y1="30.927" x2="73.111" y2="48.073" xlink:href="#i"><stop stop-color="#c9fff3"/><stop offset="1" stop-color="#fff"/></linearGradient><linearGradient id="Z" x1="136.966" y1="31.048" x2="136.966" y2="48.528" xlink:href="#i"><stop offset=".059" stop-color="#018980"/></linearGradient><linearGradient id="a" x1="136.966" y1="31.048" x2="136.966" y2="48.528" xlink:href="#i"><stop offset=".059" stop-color="#7effe1"/><stop offset="1" stop-color="#018980"/></linearGradient><path id="b" d="M12.594.969h1.265v21.503h-1.265z"/><path id="c" d="M104.778 48.426c-2.69 0-4.672-.723-5.946-2.168s-1.91-3.508-1.91-6.189c0-2.695.637-4.826 1.91-6.392s3.256-2.349 5.946-2.349c3.761 0 6.278 1.634 7.552 4.901-1.071.467-2.327 1.167-3.767 2.1-.345-.843-.893-1.468-1.643-1.875-.738-.407-1.494-.61-2.267-.61-1.143 0-1.994.384-2.553 1.152-.56.753-.84 1.687-.84 2.801 0 1.205.298 2.191.893 2.959.607.753 1.53 1.129 2.767 1.129.988 0 1.774-.203 2.357-.61.583-.422 1.012-1.084 1.286-1.988.976.663 2.226 1.408 3.749 2.236-.595 1.822-1.589 3.094-2.982 3.817s-2.91 1.084-4.552 1.084z"/><path id="d" d="M125.031 48.2l-.911-3.23h-5.695l-.893 3.23h-4.482l5-16.398h6.57l5.035 16.398h-4.624zm-1.929-6.753l-1.392-4.743-.429-1.468-1.839 6.211h3.66z"/><path id="e" d="M129.893 46.257l.999-2.146c.274-.663.536-1.431.786-2.304.845.617 1.827 1.099 2.946 1.446s2.16.52 3.124.52c.988 0 1.685-.105 2.089-.316.405-.226.607-.467.607-.723 0-.919-1.107-1.378-3.321-1.378-2.428 0-4.189-.316-5.284-.949-1.095-.648-1.643-1.687-1.643-3.117 0-2.033.667-3.531 2-4.495s3.065-1.446 5.195-1.446c1.238 0 2.506.203 3.803.61 1.309.391 2.488.933 3.535 1.626l-1.089 3.636-.178.678c-.607-.617-1.524-1.129-2.75-1.536-1.226-.422-2.309-.632-3.249-.632-1.131 0-1.893.098-2.286.294-.392.181-.589.452-.589.813s.268.655.804.881c.547.211 1.333.316 2.356.316 2.524 0 4.357.369 5.499 1.107 1.143.723 1.714 1.837 1.714 3.343 0 2.108-.607 3.629-1.821 4.562-1.214.919-3.053 1.378-5.517 1.378-1.321 0-2.666-.181-4.035-.542-1.368-.376-2.6-.919-3.695-1.626z"/><path id="f" d="M152.065 48.2h-4.883l.258-8.199-.258-8.199h4.883l-.356 8.199.356 8.199z"/><path id="g" d="M170.065 31.825l-.125 8.176.125 8.199h-6.392l-4.32-12.332.321 12.332h-4.589l.143-8.199-.143-8.176h6.571l4.338 12.671-.303-12.671h4.374z"/><path id="h" d="M179.437 48.426c-2.725 0-4.731-.745-6.016-2.236-1.286-1.506-1.929-3.614-1.929-6.324 0-2.68.637-4.773 1.911-6.279 1.285-1.506 3.297-2.259 6.034-2.259 2.75 0 4.761.753 6.035 2.259 1.286 1.506 1.928 3.599 1.928 6.279 0 2.725-.636 4.834-1.91 6.324s-3.291 2.236-6.053 2.236zm0-4.608c1.322 0 2.274-.316 2.857-.949.583-.648.875-1.649.875-3.004 0-1.325-.292-2.311-.875-2.959s-1.535-.971-2.857-.971c-1.309 0-2.255.324-2.838.971s-.875 1.634-.875 2.959c0 1.34.291 2.334.875 2.981s1.529.971 2.838.971z"/><linearGradient id="i" gradientUnits="userSpaceOnUse"/></defs></svg>